<mxfile host="app.diagrams.net" agent="Mozilla/5.0 (Windows NT 10.0; Win64; x64; rv:133.0) Gecko/20100101 Firefox/133.0" version="26.0.3">
  <diagram name="PÃ¡gina-1" id="dqLcOb5ojzZijLl2xL6k">
    <mxGraphModel dx="1326" dy="647" grid="1" gridSize="10" guides="1" tooltips="1" connect="1" arrows="1" fold="1" page="1" pageScale="1" pageWidth="827" pageHeight="1169" math="0" shadow="0">
      <root>
        <mxCell id="0" />
        <mxCell id="1" parent="0" />
        <mxCell id="axeA_orivt2Zv7nJtLyO-1" value="Administrador" style="shape=umlActor;verticalLabelPosition=bottom;verticalAlign=top;html=1;outlineConnect=0;" parent="1" vertex="1">
          <mxGeometry x="130" y="210" width="30" height="60" as="geometry" />
        </mxCell>
        <mxCell id="axeA_orivt2Zv7nJtLyO-3" value="Tela Visualizacao Passageiros" style="rounded=0;whiteSpace=wrap;html=1;" parent="1" vertex="1">
          <mxGeometry x="270" y="215" width="120" height="50" as="geometry" />
        </mxCell>
        <mxCell id="axeA_orivt2Zv7nJtLyO-4" value="Passageiro" style="rounded=0;whiteSpace=wrap;html=1;" parent="1" vertex="1">
          <mxGeometry x="590" y="215" width="120" height="50" as="geometry" />
        </mxCell>
        <mxCell id="axeA_orivt2Zv7nJtLyO-5" value="" style="endArrow=none;dashed=1;html=1;rounded=0;exitX=0.5;exitY=1;exitDx=0;exitDy=0;" parent="1" source="axeA_orivt2Zv7nJtLyO-8" edge="1">
          <mxGeometry width="50" height="50" relative="1" as="geometry">
            <mxPoint x="140" y="290" as="sourcePoint" />
            <mxPoint x="140" y="730" as="targetPoint" />
          </mxGeometry>
        </mxCell>
        <mxCell id="axeA_orivt2Zv7nJtLyO-9" value="" style="endArrow=none;dashed=1;html=1;rounded=0;entryX=0.5;entryY=0;entryDx=0;entryDy=0;" parent="1" target="axeA_orivt2Zv7nJtLyO-8" edge="1">
          <mxGeometry width="50" height="50" relative="1" as="geometry">
            <mxPoint x="140" y="290" as="sourcePoint" />
            <mxPoint x="140" y="650" as="targetPoint" />
          </mxGeometry>
        </mxCell>
        <mxCell id="axeA_orivt2Zv7nJtLyO-8" value="" style="rounded=1;whiteSpace=wrap;html=1;" parent="1" vertex="1">
          <mxGeometry x="135" y="300" width="10" height="410" as="geometry" />
        </mxCell>
        <mxCell id="axeA_orivt2Zv7nJtLyO-15" value="" style="endArrow=none;dashed=1;html=1;rounded=0;exitX=0.5;exitY=1;exitDx=0;exitDy=0;entryX=0.5;entryY=0;entryDx=0;entryDy=0;" parent="1" source="axeA_orivt2Zv7nJtLyO-4" target="axeA_orivt2Zv7nJtLyO-65" edge="1">
          <mxGeometry width="50" height="50" relative="1" as="geometry">
            <mxPoint x="929.76" y="265" as="sourcePoint" />
            <mxPoint x="929.76" y="515" as="targetPoint" />
          </mxGeometry>
        </mxCell>
        <mxCell id="axeA_orivt2Zv7nJtLyO-17" value="Tela Ver Passageiro" style="rounded=0;whiteSpace=wrap;html=1;" parent="1" vertex="1">
          <mxGeometry x="430" y="215" width="120" height="50" as="geometry" />
        </mxCell>
        <mxCell id="axeA_orivt2Zv7nJtLyO-54" value="" style="rounded=1;whiteSpace=wrap;html=1;" parent="1" vertex="1">
          <mxGeometry x="325" y="318" width="10" height="52" as="geometry" />
        </mxCell>
        <mxCell id="axeA_orivt2Zv7nJtLyO-60" value="" style="endArrow=classic;html=1;rounded=0;exitX=1.085;exitY=0.449;exitDx=0;exitDy=0;exitPerimeter=0;entryX=0;entryY=0;entryDx=0;entryDy=0;" parent="1" target="axeA_orivt2Zv7nJtLyO-54" edge="1">
          <mxGeometry width="50" height="50" relative="1" as="geometry">
            <mxPoint x="145.8499999999999" y="318.59000000000015" as="sourcePoint" />
            <mxPoint x="690" y="309" as="targetPoint" />
          </mxGeometry>
        </mxCell>
        <mxCell id="axeA_orivt2Zv7nJtLyO-61" value="" style="endArrow=none;html=1;rounded=0;entryX=0;entryY=1;entryDx=0;entryDy=0;dashed=1;endFill=0;startArrow=open;startFill=0;" parent="1" target="axeA_orivt2Zv7nJtLyO-54" edge="1">
          <mxGeometry width="50" height="50" relative="1" as="geometry">
            <mxPoint x="146" y="370" as="sourcePoint" />
            <mxPoint x="635" y="368" as="targetPoint" />
          </mxGeometry>
        </mxCell>
        <mxCell id="axeA_orivt2Zv7nJtLyO-63" value="&lt;font&gt;1: Inicializar Tela()&lt;/font&gt;" style="text;html=1;align=center;verticalAlign=middle;whiteSpace=wrap;rounded=0;fontSize=10;" parent="1" vertex="1">
          <mxGeometry x="156" y="300" width="160" height="20" as="geometry" />
        </mxCell>
        <mxCell id="axeA_orivt2Zv7nJtLyO-65" value="" style="rounded=1;whiteSpace=wrap;html=1;" parent="1" vertex="1">
          <mxGeometry x="645" y="316" width="10" height="52" as="geometry" />
        </mxCell>
        <mxCell id="axeA_orivt2Zv7nJtLyO-66" value="" style="endArrow=classic;html=1;rounded=0;exitX=1;exitY=0;exitDx=0;exitDy=0;entryX=0;entryY=0;entryDx=0;entryDy=0;" parent="1" source="axeA_orivt2Zv7nJtLyO-54" target="axeA_orivt2Zv7nJtLyO-65" edge="1">
          <mxGeometry width="50" height="50" relative="1" as="geometry">
            <mxPoint x="624" y="318.65999999999997" as="sourcePoint" />
            <mxPoint x="820" y="320" as="targetPoint" />
          </mxGeometry>
        </mxCell>
        <mxCell id="axeA_orivt2Zv7nJtLyO-67" value="" style="endArrow=none;html=1;rounded=0;entryX=0;entryY=1;entryDx=0;entryDy=0;dashed=1;endFill=0;startArrow=open;startFill=0;exitX=1;exitY=1;exitDx=0;exitDy=0;" parent="1" source="axeA_orivt2Zv7nJtLyO-54" target="axeA_orivt2Zv7nJtLyO-65" edge="1">
          <mxGeometry width="50" height="50" relative="1" as="geometry">
            <mxPoint x="623" y="368" as="sourcePoint" />
            <mxPoint x="925" y="368" as="targetPoint" />
          </mxGeometry>
        </mxCell>
        <mxCell id="axeA_orivt2Zv7nJtLyO-68" value="&lt;font&gt;2.2: get&lt;/font&gt;Passageiro&lt;font&gt;()&lt;/font&gt;" style="text;html=1;align=center;verticalAlign=middle;whiteSpace=wrap;rounded=0;fontSize=10;" parent="1" vertex="1">
          <mxGeometry x="480" y="535" width="160" height="20" as="geometry" />
        </mxCell>
        <mxCell id="axeA_orivt2Zv7nJtLyO-70" value="{Passageiros}" style="text;html=1;align=center;verticalAlign=middle;whiteSpace=wrap;rounded=0;fontSize=10;" parent="1" vertex="1">
          <mxGeometry x="331" y="368" width="130" height="20" as="geometry" />
        </mxCell>
        <mxCell id="axeA_orivt2Zv7nJtLyO-73" value="{Passageiros}" style="text;html=1;align=center;verticalAlign=middle;whiteSpace=wrap;rounded=0;fontSize=10;" parent="1" vertex="1">
          <mxGeometry x="145" y="369" width="180" height="20" as="geometry" />
        </mxCell>
        <mxCell id="axeA_orivt2Zv7nJtLyO-81" value="" style="rounded=1;whiteSpace=wrap;html=1;" parent="1" vertex="1">
          <mxGeometry x="485" y="550" width="10" height="52" as="geometry" />
        </mxCell>
        <mxCell id="axeA_orivt2Zv7nJtLyO-83" value="" style="endArrow=classic;html=1;rounded=0;entryX=0;entryY=0;entryDx=0;entryDy=0;exitX=1.015;exitY=0.586;exitDx=0;exitDy=0;exitPerimeter=0;" parent="1" target="axeA_orivt2Zv7nJtLyO-81" edge="1">
          <mxGeometry width="50" height="50" relative="1" as="geometry">
            <mxPoint x="145.1500000000001" y="548.9599999999998" as="sourcePoint" />
            <mxPoint x="785" y="554" as="targetPoint" />
          </mxGeometry>
        </mxCell>
        <mxCell id="axeA_orivt2Zv7nJtLyO-84" value="" style="endArrow=none;html=1;rounded=0;entryX=0;entryY=1;entryDx=0;entryDy=0;dashed=1;endFill=0;startArrow=open;startFill=0;" parent="1" target="axeA_orivt2Zv7nJtLyO-81" edge="1">
          <mxGeometry width="50" height="50" relative="1" as="geometry">
            <mxPoint x="145" y="602" as="sourcePoint" />
            <mxPoint x="785" y="606" as="targetPoint" />
          </mxGeometry>
        </mxCell>
        <mxCell id="axeA_orivt2Zv7nJtLyO-85" value="&lt;font&gt;2.1: Inicializar Tela()&lt;/font&gt;" style="text;html=1;align=center;verticalAlign=middle;whiteSpace=wrap;rounded=0;fontSize=10;" parent="1" vertex="1">
          <mxGeometry x="156" y="530" width="160" height="20" as="geometry" />
        </mxCell>
        <mxCell id="axeA_orivt2Zv7nJtLyO-88" value="" style="rounded=1;whiteSpace=wrap;html=1;" parent="1" vertex="1">
          <mxGeometry x="645" y="555" width="10" height="42" as="geometry" />
        </mxCell>
        <mxCell id="axeA_orivt2Zv7nJtLyO-90" value="" style="endArrow=classic;html=1;rounded=0;exitX=1.189;exitY=0.107;exitDx=0;exitDy=0;entryX=0;entryY=0;entryDx=0;entryDy=0;exitPerimeter=0;" parent="1" target="axeA_orivt2Zv7nJtLyO-88" edge="1" source="axeA_orivt2Zv7nJtLyO-81">
          <mxGeometry width="50" height="50" relative="1" as="geometry">
            <mxPoint x="655" y="555" as="sourcePoint" />
            <mxPoint x="935" y="555.66" as="targetPoint" />
          </mxGeometry>
        </mxCell>
        <mxCell id="axeA_orivt2Zv7nJtLyO-91" value="" style="endArrow=none;html=1;rounded=0;entryX=0;entryY=1;entryDx=0;entryDy=0;dashed=1;endFill=0;startArrow=open;startFill=0;exitX=1.054;exitY=0.887;exitDx=0;exitDy=0;exitPerimeter=0;" parent="1" source="axeA_orivt2Zv7nJtLyO-81" target="axeA_orivt2Zv7nJtLyO-88" edge="1">
          <mxGeometry width="50" height="50" relative="1" as="geometry">
            <mxPoint x="660" y="597" as="sourcePoint" />
            <mxPoint x="786" y="597" as="targetPoint" />
          </mxGeometry>
        </mxCell>
        <mxCell id="axeA_orivt2Zv7nJtLyO-92" value="&lt;font&gt;1.1: get&lt;/font&gt;Passageiro&lt;font&gt;s()&lt;/font&gt;" style="text;html=1;align=center;verticalAlign=middle;whiteSpace=wrap;rounded=0;fontSize=10;" parent="1" vertex="1">
          <mxGeometry x="316" y="298" width="160" height="20" as="geometry" />
        </mxCell>
        <mxCell id="axeA_orivt2Zv7nJtLyO-93" value="{Passageiro}" style="text;html=1;align=center;verticalAlign=middle;whiteSpace=wrap;rounded=0;fontSize=10;" parent="1" vertex="1">
          <mxGeometry x="495" y="597" width="130" height="20" as="geometry" />
        </mxCell>
        <mxCell id="axeA_orivt2Zv7nJtLyO-94" value="{Passageiro}" style="text;html=1;align=center;verticalAlign=middle;whiteSpace=wrap;rounded=0;fontSize=10;" parent="1" vertex="1">
          <mxGeometry x="180" y="602" width="130" height="20" as="geometry" />
        </mxCell>
        <mxCell id="0-eEK_Ey9VHcflzUC_9f-27" value="" style="endArrow=none;dashed=1;html=1;rounded=0;exitX=0.5;exitY=1;exitDx=0;exitDy=0;" parent="1" edge="1">
          <mxGeometry width="50" height="50" relative="1" as="geometry">
            <mxPoint x="139.89000000000001" y="1160" as="sourcePoint" />
            <mxPoint x="139.89000000000001" y="1180" as="targetPoint" />
          </mxGeometry>
        </mxCell>
        <mxCell id="UyoI0o9oHa3tuSuAJXwl-8" value="" style="endArrow=none;dashed=1;html=1;rounded=0;exitX=0.5;exitY=1;exitDx=0;exitDy=0;entryX=0.5;entryY=0;entryDx=0;entryDy=0;" parent="1" source="axeA_orivt2Zv7nJtLyO-3" target="axeA_orivt2Zv7nJtLyO-54" edge="1">
          <mxGeometry width="50" height="50" relative="1" as="geometry">
            <mxPoint x="328" y="265" as="sourcePoint" />
            <mxPoint x="328" y="318" as="targetPoint" />
          </mxGeometry>
        </mxCell>
        <mxCell id="UyoI0o9oHa3tuSuAJXwl-12" value="" style="endArrow=none;dashed=1;html=1;rounded=0;exitX=0.5;exitY=1;exitDx=0;exitDy=0;entryX=0.5;entryY=0;entryDx=0;entryDy=0;" parent="1" target="1tfXP8SBIaw6nijxg4D2-3" edge="1">
          <mxGeometry width="50" height="50" relative="1" as="geometry">
            <mxPoint x="330" y="368" as="sourcePoint" />
            <mxPoint x="330" y="428" as="targetPoint" />
          </mxGeometry>
        </mxCell>
        <mxCell id="-u--zJyqtq7YNAQtrUt4-1" value="" style="rounded=1;whiteSpace=wrap;html=1;" parent="1" vertex="1">
          <mxGeometry x="325" y="648" width="10" height="52" as="geometry" />
        </mxCell>
        <mxCell id="-u--zJyqtq7YNAQtrUt4-2" value="" style="endArrow=classic;html=1;rounded=0;exitX=1.085;exitY=0.449;exitDx=0;exitDy=0;exitPerimeter=0;entryX=0;entryY=0;entryDx=0;entryDy=0;" parent="1" target="-u--zJyqtq7YNAQtrUt4-1" edge="1">
          <mxGeometry width="50" height="50" relative="1" as="geometry">
            <mxPoint x="145.8499999999999" y="648.5900000000001" as="sourcePoint" />
            <mxPoint x="690" y="639" as="targetPoint" />
          </mxGeometry>
        </mxCell>
        <mxCell id="-u--zJyqtq7YNAQtrUt4-3" value="" style="endArrow=none;html=1;rounded=0;entryX=0;entryY=1;entryDx=0;entryDy=0;dashed=1;endFill=0;startArrow=open;startFill=0;" parent="1" target="-u--zJyqtq7YNAQtrUt4-1" edge="1">
          <mxGeometry width="50" height="50" relative="1" as="geometry">
            <mxPoint x="146" y="700" as="sourcePoint" />
            <mxPoint x="635" y="698" as="targetPoint" />
          </mxGeometry>
        </mxCell>
        <mxCell id="-u--zJyqtq7YNAQtrUt4-4" value="&lt;font&gt;3: Pesquisar&amp;nbsp;&lt;/font&gt;Passageiro&lt;font&gt;s()&lt;/font&gt;" style="text;html=1;align=center;verticalAlign=middle;whiteSpace=wrap;rounded=0;fontSize=10;" parent="1" vertex="1">
          <mxGeometry x="156" y="630" width="160" height="20" as="geometry" />
        </mxCell>
        <mxCell id="-u--zJyqtq7YNAQtrUt4-5" value="" style="rounded=1;whiteSpace=wrap;html=1;" parent="1" vertex="1">
          <mxGeometry x="645" y="646" width="10" height="52" as="geometry" />
        </mxCell>
        <mxCell id="-u--zJyqtq7YNAQtrUt4-6" value="" style="endArrow=classic;html=1;rounded=0;exitX=1;exitY=0;exitDx=0;exitDy=0;entryX=0;entryY=0;entryDx=0;entryDy=0;" parent="1" source="-u--zJyqtq7YNAQtrUt4-1" target="-u--zJyqtq7YNAQtrUt4-5" edge="1">
          <mxGeometry width="50" height="50" relative="1" as="geometry">
            <mxPoint x="624" y="648.6599999999999" as="sourcePoint" />
            <mxPoint x="820" y="650" as="targetPoint" />
          </mxGeometry>
        </mxCell>
        <mxCell id="-u--zJyqtq7YNAQtrUt4-7" value="" style="endArrow=none;html=1;rounded=0;entryX=0;entryY=1;entryDx=0;entryDy=0;dashed=1;endFill=0;startArrow=open;startFill=0;exitX=1;exitY=1;exitDx=0;exitDy=0;" parent="1" source="-u--zJyqtq7YNAQtrUt4-1" target="-u--zJyqtq7YNAQtrUt4-5" edge="1">
          <mxGeometry width="50" height="50" relative="1" as="geometry">
            <mxPoint x="623" y="698" as="sourcePoint" />
            <mxPoint x="925" y="698" as="targetPoint" />
          </mxGeometry>
        </mxCell>
        <mxCell id="-u--zJyqtq7YNAQtrUt4-8" value="{&lt;font&gt;&lt;/font&gt;Passageiros}" style="text;html=1;align=center;verticalAlign=middle;whiteSpace=wrap;rounded=0;fontSize=10;" parent="1" vertex="1">
          <mxGeometry x="425" y="698" width="130" height="20" as="geometry" />
        </mxCell>
        <mxCell id="-u--zJyqtq7YNAQtrUt4-9" value="{Passageiros}" style="text;html=1;align=center;verticalAlign=middle;whiteSpace=wrap;rounded=0;fontSize=10;" parent="1" vertex="1">
          <mxGeometry x="145" y="700" width="180" height="20" as="geometry" />
        </mxCell>
        <mxCell id="-u--zJyqtq7YNAQtrUt4-10" value="&lt;font&gt;3.1: get&lt;/font&gt;Passageiro&lt;font&gt;sFiltro()&lt;/font&gt;" style="text;html=1;align=center;verticalAlign=middle;whiteSpace=wrap;rounded=0;fontSize=10;" parent="1" vertex="1">
          <mxGeometry x="414" y="630" width="160" height="20" as="geometry" />
        </mxCell>
        <mxCell id="-u--zJyqtq7YNAQtrUt4-12" value="" style="endArrow=none;dashed=1;html=1;rounded=0;exitX=0.5;exitY=1;exitDx=0;exitDy=0;" parent="1" edge="1" source="axeA_orivt2Zv7nJtLyO-88">
          <mxGeometry width="50" height="50" relative="1" as="geometry">
            <mxPoint x="649.89" y="626" as="sourcePoint" />
            <mxPoint x="649.89" y="646" as="targetPoint" />
          </mxGeometry>
        </mxCell>
        <mxCell id="RL5L2QmKVNSbqxoODXSL-1" value="" style="endArrow=none;dashed=1;html=1;rounded=0;exitX=0.5;exitY=1;exitDx=0;exitDy=0;" parent="1" edge="1">
          <mxGeometry width="50" height="50" relative="1" as="geometry">
            <mxPoint x="329.6" y="700" as="sourcePoint" />
            <mxPoint x="329.6" y="720" as="targetPoint" />
          </mxGeometry>
        </mxCell>
        <mxCell id="1tfXP8SBIaw6nijxg4D2-3" value="" style="rounded=1;whiteSpace=wrap;html=1;" vertex="1" parent="1">
          <mxGeometry x="325" y="448" width="10" height="52" as="geometry" />
        </mxCell>
        <mxCell id="1tfXP8SBIaw6nijxg4D2-4" value="" style="endArrow=none;html=1;rounded=0;entryX=0;entryY=1;entryDx=0;entryDy=0;dashed=1;endFill=0;startArrow=open;startFill=0;" edge="1" parent="1" target="1tfXP8SBIaw6nijxg4D2-3">
          <mxGeometry width="50" height="50" relative="1" as="geometry">
            <mxPoint x="146" y="500" as="sourcePoint" />
            <mxPoint x="635" y="498" as="targetPoint" />
          </mxGeometry>
        </mxCell>
        <mxCell id="1tfXP8SBIaw6nijxg4D2-5" value="&lt;font&gt;2: Ver Passageiro()&lt;/font&gt;" style="text;html=1;align=center;verticalAlign=middle;whiteSpace=wrap;rounded=0;fontSize=10;" vertex="1" parent="1">
          <mxGeometry x="156" y="430" width="160" height="20" as="geometry" />
        </mxCell>
        <mxCell id="1tfXP8SBIaw6nijxg4D2-6" value="{Tela Ver Passageiro}" style="text;html=1;align=center;verticalAlign=middle;whiteSpace=wrap;rounded=0;fontSize=10;" vertex="1" parent="1">
          <mxGeometry x="145" y="499" width="180" height="20" as="geometry" />
        </mxCell>
        <mxCell id="1tfXP8SBIaw6nijxg4D2-7" value="" style="endArrow=classic;html=1;rounded=0;exitX=1.085;exitY=0.449;exitDx=0;exitDy=0;exitPerimeter=0;entryX=0;entryY=0;entryDx=0;entryDy=0;" edge="1" parent="1">
          <mxGeometry width="50" height="50" relative="1" as="geometry">
            <mxPoint x="145.4199999999999" y="448.59000000000015" as="sourcePoint" />
            <mxPoint x="324.57" y="448" as="targetPoint" />
          </mxGeometry>
        </mxCell>
        <mxCell id="1tfXP8SBIaw6nijxg4D2-10" value="" style="endArrow=none;dashed=1;html=1;rounded=0;exitX=0.5;exitY=1;exitDx=0;exitDy=0;entryX=0.5;entryY=0;entryDx=0;entryDy=0;" edge="1" parent="1" target="axeA_orivt2Zv7nJtLyO-81">
          <mxGeometry width="50" height="50" relative="1" as="geometry">
            <mxPoint x="489.72" y="265" as="sourcePoint" />
            <mxPoint x="490" y="510" as="targetPoint" />
          </mxGeometry>
        </mxCell>
        <mxCell id="1tfXP8SBIaw6nijxg4D2-11" value="" style="endArrow=none;dashed=1;html=1;rounded=0;exitX=0.5;exitY=1;exitDx=0;exitDy=0;entryX=0.5;entryY=0;entryDx=0;entryDy=0;" edge="1" parent="1" target="axeA_orivt2Zv7nJtLyO-88">
          <mxGeometry width="50" height="50" relative="1" as="geometry">
            <mxPoint x="649.77" y="368" as="sourcePoint" />
            <mxPoint x="649.77" y="419" as="targetPoint" />
          </mxGeometry>
        </mxCell>
        <mxCell id="1tfXP8SBIaw6nijxg4D2-12" value="" style="endArrow=none;dashed=1;html=1;rounded=0;exitX=0.5;exitY=1;exitDx=0;exitDy=0;" edge="1" parent="1">
          <mxGeometry width="50" height="50" relative="1" as="geometry">
            <mxPoint x="650" y="698" as="sourcePoint" />
            <mxPoint x="650" y="720" as="targetPoint" />
          </mxGeometry>
        </mxCell>
        <mxCell id="1tfXP8SBIaw6nijxg4D2-14" value="" style="endArrow=none;dashed=1;html=1;rounded=0;exitX=0.5;exitY=1;exitDx=0;exitDy=0;entryX=0.5;entryY=0;entryDx=0;entryDy=0;" edge="1" parent="1" target="-u--zJyqtq7YNAQtrUt4-1">
          <mxGeometry width="50" height="50" relative="1" as="geometry">
            <mxPoint x="329.72" y="500" as="sourcePoint" />
            <mxPoint x="329.72" y="580" as="targetPoint" />
          </mxGeometry>
        </mxCell>
        <mxCell id="1tfXP8SBIaw6nijxg4D2-15" value="" style="endArrow=none;dashed=1;html=1;rounded=0;exitX=0.5;exitY=1;exitDx=0;exitDy=0;" edge="1" parent="1">
          <mxGeometry width="50" height="50" relative="1" as="geometry">
            <mxPoint x="489.87" y="602" as="sourcePoint" />
            <mxPoint x="489.87" y="624" as="targetPoint" />
          </mxGeometry>
        </mxCell>
      </root>
    </mxGraphModel>
  </diagram>
</mxfile>
